<svg width="60" height="61" viewBox="0 0 60 61" fill="none" xmlns="http://www.w3.org/2000/svg">
<path fill-rule="evenodd" clip-rule="evenodd" d="M30 56.332C36.9619 56.332 43.6387 53.5664 48.5616 48.6436C53.4844 43.7208 56.25 37.044 56.25 30.082C56.25 23.1201 53.4844 16.4433 48.5616 11.5205C43.6387 6.59765 36.9619 3.83203 30 3.83203C23.0381 3.83203 16.3613 6.59765 11.4384 11.5205C6.51562 16.4433 3.75 23.1201 3.75 30.082C3.75 37.044 6.51562 43.7208 11.4384 48.6436C16.3613 53.5664 23.0381 56.332 30 56.332ZM30 60.082C37.9565 60.082 45.5871 56.9213 51.2132 51.2952C56.8393 45.6691 60 38.0385 60 30.082C60 22.1255 56.8393 14.4949 51.2132 8.86883C45.5871 3.24274 37.9565 0.0820313 30 0.0820312C22.0435 0.0820313 14.4129 3.24274 8.7868 8.86883C3.16071 14.4949 0 22.1255 0 30.082C0 38.0385 3.16071 45.6691 8.7868 51.2952C14.4129 56.9213 22.0435 60.082 30 60.082Z" fill="#377DFF"/>
<path fill-rule="evenodd" clip-rule="evenodd" d="M31.3273 42.6599C31.5019 42.4858 31.6404 42.2789 31.735 42.0511C31.8295 41.8233 31.8781 41.5791 31.8781 41.3324C31.8781 41.0858 31.8295 40.8416 31.735 40.6138C31.6404 40.386 31.5019 40.1791 31.3273 40.0049L21.401 30.0824L31.3273 20.1599C31.5016 19.9856 31.6399 19.7787 31.7342 19.5509C31.8286 19.3231 31.8771 19.079 31.8771 18.8324C31.8771 18.5859 31.8286 18.3418 31.7342 18.114C31.6399 17.8862 31.5016 17.6793 31.3273 17.5049C31.153 17.3306 30.946 17.1923 30.7182 17.098C30.4904 17.0036 30.2463 16.9551 29.9998 16.9551C29.7532 16.9551 29.5091 17.0036 29.2813 17.098C29.0536 17.1923 28.8466 17.3306 28.6723 17.5049L17.4223 28.7549C17.2477 28.9291 17.1091 29.136 17.0146 29.3638C16.9201 29.5916 16.8714 29.8358 16.8714 30.0824C16.8714 30.3291 16.9201 30.5733 17.0146 30.8011C17.1091 31.0289 17.2477 31.2358 17.4223 31.4099L28.6723 42.6599C28.8465 42.8346 29.0534 42.9731 29.2812 43.0676C29.5089 43.1621 29.7532 43.2108 29.9998 43.2108C30.2464 43.2108 30.4906 43.1621 30.7184 43.0676C30.9462 42.9731 31.1531 42.8346 31.3273 42.6599Z" fill="#377DFF"/>
<path fill-rule="evenodd" clip-rule="evenodd" d="M43.125 30.082C43.125 29.5848 42.9275 29.1078 42.5758 28.7562C42.2242 28.4046 41.7473 28.207 41.25 28.207H22.5C22.0027 28.207 21.5258 28.4046 21.1742 28.7562C20.8225 29.1078 20.625 29.5848 20.625 30.082C20.625 30.5793 20.8225 31.0562 21.1742 31.4079C21.5258 31.7595 22.0027 31.957 22.5 31.957H41.25C41.7473 31.957 42.2242 31.7595 42.5758 31.4079C42.9275 31.0562 43.125 30.5793 43.125 30.082Z" fill="#377DFF"/>
</svg>
