<svg width="60" height="61" viewBox="0 0 60 61" fill="none" xmlns="http://www.w3.org/2000/svg">
<path fill-rule="evenodd" clip-rule="evenodd" d="M30 3.83203C23.0381 3.83203 16.3613 6.59764 11.4385 11.5205C6.51562 16.4433 3.75 23.1201 3.75 30.082C3.75 37.044 6.51562 43.7207 11.4385 48.6436C16.3613 53.5664 23.0381 56.332 30 56.332C36.9619 56.332 43.6387 53.5664 48.5616 48.6436C53.4844 43.7208 56.25 37.044 56.25 30.082C56.25 23.1201 53.4844 16.4433 48.5616 11.5205C43.6387 6.59765 36.9619 3.83203 30 3.83203ZM30 0.0820286C22.0435 0.0820279 14.4129 3.24273 8.7868 8.86882C3.16071 14.4949 3.31826e-06 22.1255 2.62268e-06 30.082C1.9271e-06 38.0385 3.16071 45.6691 8.7868 51.2952C14.4129 56.9213 22.0435 60.082 30 60.082C37.9565 60.082 45.5871 56.9213 51.2132 51.2952C56.8393 45.6691 60 38.0385 60 30.082C60 22.1255 56.8393 14.4949 51.2132 8.86883C45.5871 3.24274 37.9565 0.0820293 30 0.0820286Z" fill="#377DFF"/>
<path fill-rule="evenodd" clip-rule="evenodd" d="M28.6727 17.5041C28.4981 17.6783 28.3596 17.8852 28.2651 18.113C28.1705 18.3408 28.1219 18.585 28.1219 18.8316C28.1219 19.0782 28.1705 19.3224 28.2651 19.5502C28.3596 19.778 28.4981 19.9849 28.6727 20.1591L38.599 30.0816L28.6727 40.0041C28.4984 40.1784 28.3601 40.3854 28.2658 40.6132C28.1714 40.8409 28.1229 41.0851 28.1229 41.3316C28.1229 41.5782 28.1714 41.8223 28.2658 42.0501C28.3601 42.2778 28.4984 42.4848 28.6727 42.6591C28.847 42.8334 29.054 42.9717 29.2818 43.0661C29.5096 43.1604 29.7537 43.209 30.0002 43.209C30.2468 43.209 30.4909 43.1604 30.7187 43.0661C30.9464 42.9717 31.1534 42.8334 31.3277 42.6591L42.5777 31.4091C42.7523 31.2349 42.8909 31.028 42.9854 30.8002C43.0799 30.5724 43.1286 30.3282 43.1286 30.0816C43.1286 29.835 43.0799 29.5908 42.9854 29.363C42.8909 29.1352 42.7523 28.9283 42.5777 28.7541L31.3277 17.5041C31.1536 17.3295 30.9466 17.191 30.7188 17.0964C30.4911 17.0019 30.2468 16.9533 30.0002 16.9533C29.7536 16.9533 29.5094 17.0019 29.2816 17.0964C29.0538 17.191 28.8469 17.3295 28.6727 17.5041Z" fill="#377DFF"/>
<path fill-rule="evenodd" clip-rule="evenodd" d="M16.875 30.082C16.875 30.5793 17.0725 31.0562 17.4242 31.4079C17.7758 31.7595 18.2527 31.957 18.75 31.957L37.5 31.957C37.9973 31.957 38.4742 31.7595 38.8258 31.4079C39.1775 31.0562 39.375 30.5793 39.375 30.082C39.375 29.5848 39.1775 29.1078 38.8258 28.7562C38.4742 28.4046 37.9973 28.207 37.5 28.207L18.75 28.207C18.2527 28.207 17.7758 28.4046 17.4242 28.7562C17.0725 29.1078 16.875 29.5847 16.875 30.082Z" fill="#377DFF"/>
</svg>
