<svg width="202" height="31" viewBox="0 0 202 31" fill="none" xmlns="http://www.w3.org/2000/svg">
<path d="M22.256 27.8321H17.5607L11.0528 17.0946C10.7384 16.5781 10.0428 16.3996 9.50104 16.6993C8.95927 16.9989 8.77199 17.6621 9.08635 18.1785L14.9321 27.8321H10.2167L2.45134 15.0032L10.2167 2.16791H24.3027L29.4328 10.6419C28.5967 11.3943 28.0684 12.4591 28.0684 13.6387C28.0684 15.9086 30.008 17.7577 32.3891 17.7577C34.7703 17.7577 36.7099 15.9086 36.7099 13.6387C36.7099 11.3688 34.7703 9.51966 32.3891 9.51966C32.0614 9.51966 31.747 9.55792 31.4394 9.62168L25.9481 0.541977C25.7408 0.204038 25.3662 0 24.9582 0H9.56123C9.15323 0 8.77868 0.204038 8.57802 0.541977L0.150492 14.4612C-0.0501639 14.7992 -0.0501639 15.2072 0.150492 15.5452L8.57802 29.4644C8.77868 29.8023 9.15992 30.0064 9.56123 30.0064H22.256C22.8848 30.0064 23.3931 29.5218 23.3931 28.9224C23.3931 28.3167 22.8848 27.8321 22.256 27.8321ZM32.3958 11.6876C33.5262 11.6876 34.4425 12.5611 34.4425 13.6387C34.4425 14.7163 33.5262 15.5898 32.3958 15.5898C31.2655 15.5898 30.3491 14.7163 30.3491 13.6387C30.3491 12.5675 31.2655 11.6876 32.3958 11.6876ZM52.3477 14.4612L43.9201 0.541977C43.7128 0.204038 43.3382 0 42.9302 0H30.2354C29.6067 0 29.0984 0.484591 29.0984 1.08395C29.0984 1.68332 29.6067 2.16791 30.2354 2.16791H34.9308L41.4387 12.9054C41.646 13.2561 42.034 13.4474 42.4219 13.4474C42.6159 13.4474 42.8098 13.4028 42.9904 13.3007C43.5322 13.0011 43.7195 12.3379 43.4051 11.8215L37.5594 2.16791H42.2748L50.0468 14.9968L42.2748 27.8321H28.1888L23.0587 19.3581C23.8947 18.6057 24.4231 17.5409 24.4231 16.3613C24.4231 14.0914 22.4834 12.2423 20.1023 12.2423C17.7212 12.2423 15.7816 14.0914 15.7816 16.3613C15.7816 18.6312 17.7212 20.4803 20.1023 20.4803C20.4301 20.4803 20.7444 20.4421 21.0521 20.3783L26.5501 29.458C26.7507 29.796 27.132 30 27.5333 30H42.9302C43.3382 30 43.7128 29.796 43.9135 29.458L52.341 15.5388C52.5483 15.2072 52.5483 14.7928 52.3477 14.4612ZM20.1023 18.3124C18.972 18.3124 18.0556 17.4389 18.0556 16.3613C18.0556 15.2837 18.972 14.4102 20.1023 14.4102C21.2327 14.4102 22.149 15.2837 22.149 16.3613C22.149 17.4389 21.2327 18.3124 20.1023 18.3124Z" fill="url(#paint0_linear_3_14)"/>
<path d="M80.7878 5.09L74.7278 26H71.6678L66.8078 9.17L61.7678 26L58.7378 26.03L52.8878 5.09H55.7978L60.3578 22.82L65.3978 5.09H68.4578L73.2578 22.76L77.8478 5.09H80.7878ZM98.7754 17.15C98.7754 17.67 98.7454 18.22 98.6854 18.8H85.5454C85.6454 20.42 86.1954 21.69 87.1954 22.61C88.2154 23.51 89.4454 23.96 90.8854 23.96C92.0654 23.96 93.0454 23.69 93.8254 23.15C94.6254 22.59 95.1854 21.85 95.5054 20.93H98.4454C98.0054 22.51 97.1254 23.8 95.8054 24.8C94.4854 25.78 92.8454 26.27 90.8854 26.27C89.3254 26.27 87.9254 25.92 86.6854 25.22C85.4654 24.52 84.5054 23.53 83.8054 22.25C83.1054 20.95 82.7554 19.45 82.7554 17.75C82.7554 16.05 83.0954 14.56 83.7754 13.28C84.4554 12 85.4054 11.02 86.6254 10.34C87.8654 9.64 89.2854 9.29 90.8854 9.29C92.4454 9.29 93.8254 9.63 95.0254 10.31C96.2254 10.99 97.1454 11.93 97.7854 13.13C98.4454 14.31 98.7754 15.65 98.7754 17.15ZM95.9554 16.58C95.9554 15.54 95.7254 14.65 95.2654 13.91C94.8054 13.15 94.1754 12.58 93.3754 12.2C92.5954 11.8 91.7254 11.6 90.7654 11.6C89.3854 11.6 88.2054 12.04 87.2254 12.92C86.2654 13.8 85.7154 15.02 85.5754 16.58H95.9554ZM105.109 12.62C105.669 11.64 106.489 10.84 107.569 10.22C108.649 9.6 109.879 9.29 111.259 9.29C112.739 9.29 114.069 9.64 115.249 10.34C116.429 11.04 117.359 12.03 118.039 13.31C118.719 14.57 119.059 16.04 119.059 17.72C119.059 19.38 118.719 20.86 118.039 22.16C117.359 23.46 116.419 24.47 115.219 25.19C114.039 25.91 112.719 26.27 111.259 26.27C109.839 26.27 108.589 25.96 107.509 25.34C106.449 24.72 105.649 23.93 105.109 22.97V26H102.379V3.8H105.109V12.62ZM116.269 17.72C116.269 16.48 116.019 15.4 115.519 14.48C115.019 13.56 114.339 12.86 113.479 12.38C112.639 11.9 111.709 11.66 110.689 11.66C109.689 11.66 108.759 11.91 107.899 12.41C107.059 12.89 106.379 13.6 105.859 14.54C105.359 15.46 105.109 16.53 105.109 17.75C105.109 18.99 105.359 20.08 105.859 21.02C106.379 21.94 107.059 22.65 107.899 23.15C108.759 23.63 109.689 23.87 110.689 23.87C111.709 23.87 112.639 23.63 113.479 23.15C114.339 22.65 115.019 21.94 115.519 21.02C116.019 20.08 116.269 18.98 116.269 17.72ZM135.522 5.09V7.31H129.822V26H127.092V7.31H121.362V5.09H135.522ZM153.883 17.15C153.883 17.67 153.853 18.22 153.793 18.8H140.653C140.753 20.42 141.303 21.69 142.303 22.61C143.323 23.51 144.553 23.96 145.993 23.96C147.173 23.96 148.153 23.69 148.933 23.15C149.733 22.59 150.293 21.85 150.613 20.93H153.553C153.113 22.51 152.233 23.8 150.913 24.8C149.593 25.78 147.953 26.27 145.993 26.27C144.433 26.27 143.033 25.92 141.793 25.22C140.573 24.52 139.613 23.53 138.913 22.25C138.213 20.95 137.863 19.45 137.863 17.75C137.863 16.05 138.203 14.56 138.883 13.28C139.563 12 140.513 11.02 141.733 10.34C142.973 9.64 144.393 9.29 145.993 9.29C147.553 9.29 148.933 9.63 150.133 10.31C151.333 10.99 152.253 11.93 152.893 13.13C153.553 14.31 153.883 15.65 153.883 17.15ZM151.063 16.58C151.063 15.54 150.833 14.65 150.373 13.91C149.913 13.15 149.283 12.58 148.483 12.2C147.703 11.8 146.833 11.6 145.873 11.6C144.493 11.6 143.313 12.04 142.333 12.92C141.373 13.8 140.823 15.02 140.683 16.58H151.063ZM156.466 17.75C156.466 16.05 156.806 14.57 157.486 13.31C158.166 12.03 159.106 11.04 160.306 10.34C161.526 9.64 162.916 9.29 164.476 9.29C166.496 9.29 168.156 9.78 169.456 10.76C170.776 11.74 171.646 13.1 172.066 14.84H169.126C168.846 13.84 168.296 13.05 167.476 12.47C166.676 11.89 165.676 11.6 164.476 11.6C162.916 11.6 161.656 12.14 160.696 13.22C159.736 14.28 159.256 15.79 159.256 17.75C159.256 19.73 159.736 21.26 160.696 22.34C161.656 23.42 162.916 23.96 164.476 23.96C165.676 23.96 166.676 23.68 167.476 23.12C168.276 22.56 168.826 21.76 169.126 20.72H172.066C171.626 22.4 170.746 23.75 169.426 24.77C168.106 25.77 166.456 26.27 164.476 26.27C162.916 26.27 161.526 25.92 160.306 25.22C159.106 24.52 158.166 23.53 157.486 22.25C156.806 20.97 156.466 19.47 156.466 17.75ZM183.869 9.26C185.109 9.26 186.229 9.53 187.229 10.07C188.229 10.59 189.009 11.38 189.569 12.44C190.149 13.5 190.439 14.79 190.439 16.31V26H187.739V16.7C187.739 15.06 187.329 13.81 186.509 12.95C185.689 12.07 184.569 11.63 183.149 11.63C181.709 11.63 180.559 12.08 179.699 12.98C178.859 13.88 178.439 15.19 178.439 16.91V26H175.709V3.8H178.439V11.9C178.979 11.06 179.719 10.41 180.659 9.95C181.619 9.49 182.689 9.26 183.869 9.26Z" fill="#377DFF"/>
<defs>
<linearGradient id="paint0_linear_3_14" x1="26.2487" y1="0" x2="26.2487" y2="30.0064" gradientUnits="userSpaceOnUse">
<stop stop-color="#377DFF"/>
<stop offset="1" stop-color="#8FBCFF"/>
</linearGradient>
</defs>
</svg>
