<svg width="50" height="51" viewBox="0 0 50 51" fill="none" xmlns="http://www.w3.org/2000/svg">
<path fill-rule="evenodd" clip-rule="evenodd" d="M25 11.4739C25.4144 11.4739 25.8118 11.6385 26.1049 11.9315C26.3979 12.2245 26.5625 12.622 26.5625 13.0364V25.5364C26.5625 25.9508 26.3979 26.3482 26.1049 26.6412C25.8118 26.9343 25.4144 27.0989 25 27.0989H12.5C12.0856 27.0989 11.6882 26.9343 11.3951 26.6412C11.1021 26.3482 10.9375 25.9508 10.9375 25.5364C10.9375 25.122 11.1021 24.7245 11.3951 24.4315C11.6882 24.1385 12.0856 23.9739 12.5 23.9739H23.4375V13.0364C23.4375 12.622 23.6021 12.2245 23.8951 11.9315C24.1882 11.6385 24.5856 11.4739 25 11.4739Z" fill="#377DFF"/>
<path fill-rule="evenodd" clip-rule="evenodd" d="M23.4375 25.5364C23.4375 25.122 23.6021 24.7245 23.8951 24.4315C24.1882 24.1385 24.5856 23.9739 25 23.9739H37.5C37.9144 23.9739 38.3118 24.1385 38.6049 24.4315C38.8979 24.7245 39.0625 25.122 39.0625 25.5364C39.0625 25.9508 38.8979 26.3482 38.6049 26.6412C38.3118 26.9343 37.9144 27.0989 37.5 27.0989H26.5625V38.0364C26.5625 38.4508 26.3979 38.8482 26.1049 39.1412C25.8118 39.4343 25.4144 39.5989 25 39.5989C24.5856 39.5989 24.1882 39.4343 23.8951 39.1412C23.6021 38.8482 23.4375 38.4508 23.4375 38.0364V25.5364Z" fill="#377DFF"/>
</svg>
