<svg width="50" height="51" viewBox="0 0 50 51" fill="none" xmlns="http://www.w3.org/2000/svg">
<path d="M44.341 18.1841L31.9435 16.3823L26.4015 5.14699C26.2502 4.83937 26.0011 4.59035 25.6935 4.43898C24.922 4.05812 23.9845 4.37551 23.5988 5.14699L18.0568 16.3823L5.65935 18.1841C5.31755 18.2329 5.00505 18.3941 4.76579 18.6382C4.47654 18.9355 4.31715 19.3355 4.32265 19.7502C4.32814 20.165 4.49807 20.5606 4.79509 20.8501L13.7648 29.5952L11.6457 41.9439C11.596 42.2311 11.6278 42.5266 11.7374 42.7967C11.8471 43.0668 12.0303 43.3008 12.2661 43.4721C12.502 43.6434 12.7812 43.7452 13.0719 43.7659C13.3627 43.7866 13.6535 43.7255 13.9113 43.5894L25.0002 37.7593L36.089 43.5894C36.3918 43.7505 36.7433 43.8042 37.0802 43.7456C37.9299 43.5991 38.5011 42.7935 38.3547 41.9439L36.2355 29.5952L45.2052 20.8501C45.4494 20.6109 45.6105 20.2984 45.6593 19.9566C45.7912 19.1021 45.1955 18.3111 44.341 18.1841ZM32.4611 28.3648L34.2238 38.6333L25.0002 33.7896L15.7765 38.6382L17.5392 28.3696L10.0783 21.0943L20.3908 19.5952L25.0002 10.2544L29.6095 19.5952L39.922 21.0943L32.4611 28.3648Z" fill="#377DFF"/>
</svg>
