<svg width="50" height="51" viewBox="0 0 50 51" fill="none" xmlns="http://www.w3.org/2000/svg">
<path d="M42.1875 33.3635H37.7525C37.489 32.2514 36.8579 31.2607 35.9614 30.5518C35.0648 29.8429 33.9553 29.4572 32.8124 29.4572C31.6695 29.4572 30.56 29.8429 29.6634 30.5518C28.7669 31.2607 28.1358 32.2514 27.8723 33.3635H7.8125C7.5017 33.3635 7.20363 33.487 6.98386 33.7067C6.76409 33.9265 6.64063 34.2246 6.64062 34.5354C6.64063 34.8462 6.76409 35.1442 6.98386 35.364C7.20363 35.5838 7.5017 35.7072 7.8125 35.7072H27.8723C28.1358 36.8194 28.7669 37.8101 29.6634 38.519C30.56 39.2279 31.6695 39.6135 32.8124 39.6135C33.9553 39.6135 35.0648 39.2279 35.9614 38.519C36.8579 37.8101 37.489 36.8194 37.7525 35.7072H42.1875C42.4983 35.7072 42.7964 35.5838 43.0161 35.364C43.2359 35.1442 43.3594 34.8462 43.3594 34.5354C43.3594 34.2246 43.2359 33.9265 43.0161 33.7067C42.7964 33.487 42.4983 33.3635 42.1875 33.3635ZM32.8125 37.2697C32.2717 37.2697 31.743 37.1094 31.2934 36.8089C30.8437 36.5085 30.4932 36.0814 30.2863 35.5818C30.0793 35.0821 30.0252 34.5323 30.1307 34.0019C30.2362 33.4715 30.4966 32.9843 30.879 32.6019C31.2614 32.2195 31.7486 31.959 32.2791 31.8535C32.8095 31.748 33.3593 31.8022 33.8589 32.0091C34.3585 32.2161 34.7856 32.5666 35.0861 33.0162C35.3865 33.4659 35.5469 33.9946 35.5469 34.5354C35.546 35.2603 35.2577 35.9553 34.7451 36.468C34.2325 36.9806 33.5374 37.2689 32.8125 37.2697ZM7.8125 18.5195H15.3723C15.6358 19.6317 16.2669 20.6224 17.1634 21.3313C18.06 22.0402 19.1695 22.4258 20.3124 22.4258C21.4553 22.4258 22.5648 22.0402 23.4614 21.3313C24.3579 20.6224 24.989 19.6317 25.2525 18.5195H42.1875C42.4983 18.5195 42.7964 18.3961 43.0161 18.1763C43.2359 17.9565 43.3594 17.6585 43.3594 17.3477C43.3594 17.0369 43.2359 16.7388 43.0161 16.519C42.7964 16.2993 42.4983 16.1758 42.1875 16.1758H25.2525C24.989 15.0637 24.3579 14.073 23.4614 13.3641C22.5648 12.6552 21.4553 12.2695 20.3124 12.2695C19.1695 12.2695 18.06 12.6552 17.1634 13.3641C16.2669 14.073 15.6358 15.0637 15.3723 16.1758H7.8125C7.5017 16.1758 7.20363 16.2993 6.98386 16.519C6.76409 16.7388 6.64063 17.0369 6.64062 17.3477C6.64063 17.6585 6.76409 17.9565 6.98386 18.1763C7.20363 18.3961 7.5017 18.5195 7.8125 18.5195ZM20.3125 14.6133C20.8533 14.6133 21.382 14.7737 21.8316 15.0741C22.2813 15.3746 22.6318 15.8016 22.8387 16.3013C23.0457 16.8009 23.0998 17.3507 22.9943 17.8811C22.8888 18.4115 22.6284 18.8988 22.246 19.2812C21.8636 19.6636 21.3764 19.924 20.8459 20.0295C20.3155 20.135 19.7657 20.0809 19.2661 19.8739C18.7665 19.6669 18.3394 19.3165 18.039 18.8668C17.7385 18.4171 17.5781 17.8885 17.5781 17.3477C17.579 16.6227 17.8673 15.9277 18.3799 15.4151C18.8925 14.9025 19.5876 14.6141 20.3125 14.6133Z" fill="#377DFF"/>
</svg>
