<svg width="50" height="51" viewBox="0 0 50 51" fill="none" xmlns="http://www.w3.org/2000/svg">
<path d="M34.0832 30.1095C34.2498 28.7345 34.3748 27.3595 34.3748 25.9428C34.3748 24.5262 34.2498 23.1512 34.0832 21.7762H41.1248C41.4582 23.1095 41.6665 24.5053 41.6665 25.9428C41.6665 27.3803 41.4582 28.7762 41.1248 30.1095H34.0832ZM30.3957 41.6928C31.6457 39.3803 32.604 36.8803 33.2707 34.2762H39.4165C37.3981 37.7517 34.1959 40.3845 30.3957 41.6928ZM29.8748 30.1095H20.1248C19.9165 28.7345 19.7915 27.3595 19.7915 25.9428C19.7915 24.5262 19.9165 23.1303 20.1248 21.7762H29.8748C30.0623 23.1303 30.2082 24.5262 30.2082 25.9428C30.2082 27.3595 30.0623 28.7345 29.8748 30.1095ZM24.9998 42.5262C23.2707 40.0262 21.8748 37.2553 21.0207 34.2762H28.979C28.1248 37.2553 26.729 40.0262 24.9998 42.5262ZM16.6665 17.6095H10.5832C12.5808 14.1245 15.7807 11.4876 19.5832 10.1928C18.3332 12.5053 17.3957 15.0053 16.6665 17.6095ZM10.5832 34.2762H16.6665C17.3957 36.8803 18.3332 39.3803 19.5832 41.6928C15.7886 40.3838 12.5933 37.7506 10.5832 34.2762ZM8.87484 30.1095C8.5415 28.7762 8.33317 27.3803 8.33317 25.9428C8.33317 24.5053 8.5415 23.1095 8.87484 21.7762H15.9165C15.7498 23.1512 15.6248 24.5262 15.6248 25.9428C15.6248 27.3595 15.7498 28.7345 15.9165 30.1095H8.87484ZM24.9998 9.33866C26.729 11.8387 28.1248 14.6303 28.979 17.6095H21.0207C21.8748 14.6303 23.2707 11.8387 24.9998 9.33866ZM39.4165 17.6095H33.2707C32.6186 15.0292 31.6531 12.5384 30.3957 10.1928C34.229 11.5053 37.4165 14.1512 39.4165 17.6095ZM24.9998 5.1095C13.479 5.1095 4.1665 14.4845 4.1665 25.9428C4.1665 31.4682 6.36144 36.7672 10.2684 40.6742C12.203 42.6088 14.4996 44.1434 17.0273 45.1903C19.5549 46.2373 22.264 46.7762 24.9998 46.7762C30.5252 46.7762 35.8242 44.5812 39.7312 40.6742C43.6382 36.7672 45.8332 31.4682 45.8332 25.9428C45.8332 23.207 45.2943 20.4979 44.2473 17.9703C43.2004 15.4426 41.6658 13.146 39.7312 11.2114C37.7967 9.27689 35.5 7.74231 32.9724 6.69534C30.4448 5.64837 27.7357 5.1095 24.9998 5.1095Z" fill="#377DFF"/>
</svg>
