<svg width="50" height="51" viewBox="0 0 50 51" fill="none" xmlns="http://www.w3.org/2000/svg">
<path d="M33.5938 16.1772V13.8335C33.5938 13.6187 33.418 13.4429 33.2031 13.4429H14.4531C14.2383 13.4429 14.0625 13.6187 14.0625 13.8335V16.1772C14.0625 16.3921 14.2383 16.5679 14.4531 16.5679H33.2031C33.418 16.5679 33.5938 16.3921 33.5938 16.1772ZM14.4531 20.4741C14.2383 20.4741 14.0625 20.6499 14.0625 20.8647V23.2085C14.0625 23.4233 14.2383 23.5991 14.4531 23.5991H23.4375C23.6523 23.5991 23.8281 23.4233 23.8281 23.2085V20.8647C23.8281 20.6499 23.6523 20.4741 23.4375 20.4741H14.4531ZM32.8125 26.1382C26.9873 26.1382 22.2656 30.8599 22.2656 36.6851C22.2656 42.5103 26.9873 47.2319 32.8125 47.2319C38.6377 47.2319 43.3594 42.5103 43.3594 36.6851C43.3594 30.8599 38.6377 26.1382 32.8125 26.1382ZM38.0615 41.9341C36.6602 43.3354 34.7949 44.1069 32.8125 44.1069C30.8301 44.1069 28.9648 43.3354 27.5635 41.9341C26.1621 40.5327 25.3906 38.6675 25.3906 36.6851C25.3906 34.7026 26.1621 32.8374 27.5635 31.436C28.9648 30.0347 30.8301 29.2632 32.8125 29.2632C34.7949 29.2632 36.6602 30.0347 38.0615 31.436C39.4629 32.8374 40.2344 34.7026 40.2344 36.6851C40.2344 38.6675 39.4629 40.5327 38.0615 41.9341ZM37.1582 32.9741H34.9951C34.8682 32.9741 34.751 33.0327 34.6777 33.1353L31.5771 37.4224L30.4492 35.8647C30.4131 35.8144 30.3654 35.7735 30.3102 35.7455C30.2549 35.7175 30.1938 35.7031 30.1318 35.7036H27.9785C27.6611 35.7036 27.4756 36.0649 27.6611 36.3237L31.2646 41.3091C31.4209 41.5239 31.7383 41.5239 31.8945 41.3091L37.4707 33.5942C37.6611 33.3354 37.4756 32.9741 37.1582 32.9741ZM21.4844 42.5444H10.1562V8.16943H37.5V24.9663C37.5 25.1812 37.6758 25.3569 37.8906 25.3569H40.625C40.8398 25.3569 41.0156 25.1812 41.0156 24.9663V6.21631C41.0156 5.35205 40.3174 4.65381 39.4531 4.65381H8.20312C7.33887 4.65381 6.64062 5.35205 6.64062 6.21631V44.4976C6.64062 45.3618 7.33887 46.0601 8.20312 46.0601H21.4844C21.6992 46.0601 21.875 45.8843 21.875 45.6694V42.9351C21.875 42.7202 21.6992 42.5444 21.4844 42.5444Z" fill="#377DFF"/>
</svg>
