<svg width="42" height="44" viewBox="0 0 42 44" fill="none" xmlns="http://www.w3.org/2000/svg">
<path d="M22.5 20.9429C22.76 20.9429 23.0125 20.9629 23.2625 21.0004C22.2875 21.6979 21.405 22.5204 20.6425 23.4429H5C4.33696 23.4429 3.70107 23.7063 3.23223 24.1751C2.76339 24.6439 2.5 25.2798 2.5 25.9429V29.6929C2.5 33.2104 6.4475 35.9429 13.75 35.9429C15.1493 35.9522 16.5465 35.8359 17.925 35.5954C18.1325 36.4179 18.4175 37.2079 18.765 37.9629C17.114 38.2927 15.4336 38.4536 13.75 38.4429C5.22 38.4429 0 34.8279 0 29.6929V25.9429C0 24.6168 0.526784 23.345 1.46447 22.4073C2.40215 21.4697 3.67392 20.9429 5 20.9429H22.5Z" fill="#377DFF"/>
<path d="M37.5 12.1929C37.5 13.8505 36.8415 15.4402 35.6694 16.6123C34.4973 17.7844 32.9076 18.4429 31.25 18.4429C29.5924 18.4429 28.0027 17.7844 26.8306 16.6123C25.6585 15.4402 25 13.8505 25 12.1929C25 10.5353 25.6585 8.94556 26.8306 7.77345C28.0027 6.60135 29.5924 5.94287 31.25 5.94287C32.9076 5.94287 34.4973 6.60135 35.6694 7.77345C36.8415 8.94556 37.5 10.5353 37.5 12.1929ZM31.25 8.44287C30.2554 8.44287 29.3016 8.83796 28.5983 9.54122C27.8951 10.2445 27.5 11.1983 27.5 12.1929C27.5 13.1874 27.8951 14.1413 28.5983 14.8445C29.3016 15.5478 30.2554 15.9429 31.25 15.9429C32.2446 15.9429 33.1984 15.5478 33.9016 14.8445C34.6049 14.1413 35 13.1874 35 12.1929C35 11.1983 34.6049 10.2445 33.9016 9.54122C33.1984 8.83796 32.2446 8.44287 31.25 8.44287Z" fill="#377DFF"/>
<path d="M13.75 0.942871C14.8991 0.942871 16.0369 1.1692 17.0985 1.60892C18.1601 2.04865 19.1247 2.69317 19.9372 3.50569C20.7497 4.3182 21.3942 5.28279 21.8339 6.34439C22.2737 7.40599 22.5 8.5438 22.5 9.69287C22.5 10.8419 22.2737 11.9798 21.8339 13.0414C21.3942 14.103 20.7497 15.0675 19.9372 15.8801C19.1247 16.6926 18.1601 17.3371 17.0985 17.7768C16.0369 18.2165 14.8991 18.4429 13.75 18.4429C11.4294 18.4429 9.20376 17.521 7.56282 15.8801C5.92187 14.2391 5 12.0135 5 9.69287C5 7.37223 5.92187 5.14663 7.56282 3.50569C9.20376 1.86474 11.4294 0.942871 13.75 0.942871ZM13.75 3.44287C12.0924 3.44287 10.5027 4.10135 9.33058 5.27345C8.15848 6.44556 7.5 8.03527 7.5 9.69287C7.5 11.3505 8.15848 12.9402 9.33058 14.1123C10.5027 15.2844 12.0924 15.9429 13.75 15.9429C15.4076 15.9429 16.9973 15.2844 18.1694 14.1123C19.3415 12.9402 20 11.3505 20 9.69287C20 8.03527 19.3415 6.44556 18.1694 5.27345C16.9973 4.10135 15.4076 3.44287 13.75 3.44287Z" fill="#377DFF"/>
<path d="M21.2599 27.743L22.1549 28.6179C22.6311 29.0836 23.0095 29.6397 23.2678 30.2536C23.5262 30.8675 23.6592 31.5269 23.6592 32.1929C23.6592 32.859 23.5262 33.5183 23.2678 34.1323C23.0095 34.7462 22.6311 35.3023 22.1549 35.768L21.2599 36.643C21.5849 37.4205 21.9899 38.1529 22.4674 38.8279L23.4549 38.5304C24.1073 38.335 24.7927 38.2748 25.4692 38.3537C26.1457 38.4326 26.7989 38.6489 27.3888 38.9892C27.9787 39.3296 28.4929 39.7869 28.8997 40.3331C29.3066 40.8793 29.5976 41.5028 29.7549 42.1655L30.0449 43.3754C30.8448 43.4665 31.6524 43.4665 32.4524 43.3754L32.7399 42.1655C32.8971 41.5028 33.1881 40.8793 33.595 40.3331C34.0018 39.7869 34.516 39.3296 35.1059 38.9892C35.6958 38.6489 36.349 38.4326 37.0255 38.3537C37.702 38.2748 38.3875 38.335 39.0399 38.5304L40.0299 38.8279C40.5049 38.1529 40.9124 37.4205 41.2374 36.643L40.3424 35.768C39.8661 35.3023 39.4877 34.7462 39.2294 34.1323C38.9711 33.5183 38.838 32.859 38.838 32.1929C38.838 31.5269 38.9711 30.8675 39.2294 30.2536C39.4877 29.6397 39.8661 29.0836 40.3424 28.6179L41.2374 27.743C40.9165 26.9724 40.5115 26.2396 40.0299 25.5579L39.0399 25.8555C38.3875 26.0509 37.702 26.1111 37.0255 26.0322C36.349 25.9533 35.6958 25.737 35.1059 25.3967C34.516 25.0563 34.0018 24.599 33.595 24.0528C33.1881 23.5066 32.8971 22.8831 32.7399 22.2204L32.4524 21.0105C31.6524 20.9194 30.8448 20.9194 30.0449 21.0105L29.7574 22.2204C29.6001 22.8831 29.3091 23.5066 28.9022 24.0528C28.4954 24.599 27.9812 25.0563 27.3913 25.3967C26.8014 25.737 26.1482 25.9533 25.4717 26.0322C24.7952 26.1111 24.1098 26.0509 23.4574 25.8555L22.4674 25.5579C21.9899 26.2329 21.5824 26.9655 21.2599 27.743ZM31.2474 34.6929C30.5843 34.6929 29.9484 34.4296 29.4796 33.9607C29.0108 33.4919 28.7474 32.856 28.7474 32.1929C28.7474 31.5299 29.0108 30.894 29.4796 30.4252C29.9484 29.9563 30.5843 29.693 31.2474 29.693C31.9104 29.693 32.5463 29.9563 33.0151 30.4252C33.484 30.894 33.7474 31.5299 33.7474 32.1929C33.7474 32.856 33.484 33.4919 33.0151 33.9607C32.5463 34.4296 31.9104 34.6929 31.2474 34.6929Z" fill="#377DFF"/>
</svg>
