<svg width="50" height="51" viewBox="0 0 50 51" fill="none" xmlns="http://www.w3.org/2000/svg">
<path d="M18.7502 13.443H10.4168V21.7763H14.5835V17.6096H18.7502V13.443ZM39.5835 21.7763H35.4168V25.943H31.2502V30.1096H39.5835V21.7763ZM43.7502 34.2763H6.25016V9.27629H43.7502V34.2763ZM43.7502 5.10962H6.25016C3.93766 5.10962 2.0835 6.96379 2.0835 9.27629V34.2763C2.0835 35.3814 2.52248 36.4412 3.30388 37.2226C4.08529 38.004 5.14509 38.443 6.25016 38.443H20.8335V42.6096H16.6668V46.7763H33.3335V42.6096H29.1668V38.443H43.7502C44.8552 38.443 45.915 38.004 46.6964 37.2226C47.4778 36.4412 47.9168 35.3814 47.9168 34.2763V9.27629C47.9168 8.17122 47.4778 7.11141 46.6964 6.33001C45.915 5.54861 44.8552 5.10962 43.7502 5.10962Z" fill="#377DFF"/>
</svg>
